<svg width="90" height="68" viewBox="0 0 90 68" fill="none" xmlns="http://www.w3.org/2000/svg">
<rect x="76" y="57.8194" width="3.82" height="1.72" transform="rotate(-76 76 57.8194)" fill="#F54721"/>
<rect x="10" y="34.8194" width="2.82" height="2.72" transform="rotate(155 10 34.8194)" fill="#DCBCFA" fill-opacity="0.6"/>
<rect x="36" y="3.81942" width="3.82" height="2.72" transform="rotate(-89 36 3.81942)" fill="#BA3E03" fill-opacity="0.75"/>
<rect x="81" y="13.8194" width="2.82" height="2.72" transform="rotate(109 81 13.8194)" fill="#BA3E03" fill-opacity="0.65"/>
<circle cx="87.15" cy="11.9694" r="2.15" fill="#FFED36" fill-opacity="0.6"/>
<circle cx="17.65" cy="44.4694" r="0.65" fill="#9AF5FC" fill-opacity="0.75"/>
<circle cx="28.65" cy="34.4694" r="1.65" fill="#FC9E1C"/>
<path d="M4.13886 47.2615L6.98947 45.6157L9.4356 47.8182L8.09679 50.8252L4.82322 50.4812L4.13886 47.2615Z" fill="#C9FCBE" fill-opacity="0.45"/>
<path d="M10.0314 25.6191L8.81771 27.3525L6.79414 26.7338L6.75721 24.6181L8.75796 23.9292L10.0314 25.6191Z" fill="#03A3F5" fill-opacity="0.85"/>
<path d="M31.7088 67.0199L29.4238 63.7566L33.3923 63.4094L31.7088 67.0199Z" fill="#FF21FB" fill-opacity="0.85"/>
<path d="M45.2577 40.2583L45.3952 41.853L46.9936 41.7672L45.6813 42.6837L46.5547 44.025L45.1049 43.3467L44.38 44.7738L44.2425 43.1791L42.6442 43.2648L43.9565 42.3484L43.083 41.0071L44.5329 41.6854L45.2577 40.2583Z" fill="#9AF5FC" fill-opacity="0.45"/>
<path d="M21.7932 11.6625L22.3041 12.8664L23.6069 12.7524L22.6199 13.6104L23.1309 14.8142L22.01 14.1406L21.023 14.9986L21.3171 13.7243L20.1962 13.0508L21.499 12.9368L21.7932 11.6625Z" fill="#DCBCFA" fill-opacity="0.45"/>
<path d="M1.15831 37.2292L1.90194 37.9153L2.9068 37.7974L2.22075 38.541L2.33868 39.5458L1.59505 38.8598L0.590188 38.9777L1.27624 38.2341L1.15831 37.2292Z" fill="#DCBCFA" fill-opacity="0.65"/>
</svg>
